# xmcd
#
# Track frame offsets: 
#        150
#        24650
#        46525
#        64319
#        95693
#        116414
#        134295
#        178995
#        197031
#
# Disc length: 2892 seconds
#
# Revision: 4
# Processed by: cddbd v1.5.2PL0 Copyright (c) Steve Scherf et al.
# Submitted via: ExactAudioCopy v1.1
#
DISCID=7c0b4a09
DTITLE=Cuby and Blizzards - Dancing Bear
DYEAR=1998
DGENRE=Blues
TTITLE0=Dancing Bear
TTITLE1=Don't Wanna Be Black In Mississippi
TTITLE2=I Don't Care
TTITLE3=Faceless Voices
TTITLE4=Where Rats Don't Go
TTITLE5=T.V. Blues
TTITLE6=If You Were An Alien
TTITLE7=Designer Baby
TTITLE8=The Big Sleep
EXTD=YEAR: 1998
EXTT0=
EXTT1=
EXTT2=
EXTT3=
EXTT4=
EXTT5=
EXTT6=
EXTT7=
EXTT8=
PLAYORDER=
